PathFileType	4	(X/Y/Z)	C:/Users/beibeiliu/ov580/test_trc\sequence.7_training_dense_right.trc
DataRate	CameraRate	NumFrames	NumMarkers	Units	OrigDataRate	OrigDataStartFrame	OrigNumFrames
120	120	10	19	mm	120	1	70
Frame#	Time	ThumbCMC			ThumbMCP			ThumbIP			ThumbTip			IndexMCP			IndexPIP			IndexTip			MiddleMCP			MiddlePIP			MiddleTip			RingMCP			RingPIP			RingTip			PinkyMCP			PinkyPIP			PinkyTip			BackHand1			BackHand2			BackHand3	
		X0	Y0	Z0	X1	Y1	Z1	X2	Y2	Z2	X3	Y3	Z3	X4	Y4	Z4	X5	Y5	Z5	X6	Y6	Z6	X7	Y7	Z7	X8	Y8	Z8	X9	Y9	Z9	X10	Y10	Z10	X11	Y11	Z11	X12	Y12	Z12	X13	Y13	Z13	X14	Y14	Z14	X15	Y15	Z15	X16	Y16	Z16	X17	Y17	Z17	X18	Y18	Z18	
0	0	166.053	40.1449	103.936	152.294	48.2683	71.145	151.539	46.2686	42.484	154.267	34.8376	20.4812	220.47	23.0344	56.5797	223.097	23.1949	24.7386	217.865	22.8446	1.14282	224.098	-6.79464	58.9419	228.858	-8.77146	27.8356	211.896	-13.3906	-1.82364	214.311	-24.907	60.5489	215.082	-31.384	30.6551	197.945	-31.0431	3.60653	197.886	-41.9055	68.1676	194.945	-52.0417	41.8295	181.315	-50.7396	17.6232	197.027	-15.2515	109.187	183.187	-8.62058	136.692	194.477	18.6034	119.386	
1	0.00833333	156.826	44.5566	98.3576	141.719	43.8166	72.8	141.948	42.9596	41.1518	142.996	36.8183	19.327	211.133	42.2823	54.9732	214.959	46.6115	23.6967	208.071	37.908	-3.10277	221.695	18.2057	56.674	226.612	14.3825	21.5591	211.351	5.70543	-5.79456	219.688	-2.61996	55.7556	221.045	-14.6951	30.8679	203.722	-13.1746	1.7714	206.874	-25.6046	65.8982	206.612	-36.6701	38.2626	192.667	-33.9586	13.7132	200.12	-1.0575	106.802	185.621	0.636522	134.014	191.49	31.3326	115.543	
2	0.0166667	137.137	43.8562	100.816	126.117	37.658	69.3339	123.226	37.0397	39.9408	130.36	28.7308	19.1132	191.906	55.8638	50.6377	193.328	61.9581	23.1866	190.455	50.6226	-4.28894	211.126	36.6329	47.9474	213.953	33.5038	17.6645	200.302	18.5957	-10.2029	213.444	13.0868	53.5045	215.969	8.02851	27.1379	199.825	-1.18922	0.147545	209.301	-9.44524	61.6342	209.627	-21.2193	37.964	199.031	-25.276	13.7433	196.549	12.2473	102.58	185.555	9.00684	129.578	178.284	39.584	113.577	
3	0.025	116.219	37.6504	97.9453	101.865	27.7057	72.2959	101.835	24.2597	40.6573	107.425	16.7812	18.4596	158.975	61.7462	47.2185	158.364	64.2364	13.7161	157.697	50.5207	-10.2827	187.352	45.2222	44.929	189.82	41.4037	11.4992	178.976	23.6442	-12.2535	194.906	28.6984	46.9072	197.561	19.3907	17.8945	181.639	6.60393	-3.76864	197.15	4.13218	58.2548	200.545	-6.67807	35.8565	189.115	-18.6052	7.78653	181.152	26.8768	98.3633	171.374	18.0486	127.563	155.358	47.5154	105.563	
4	0.0333333	94.2218	27.3339	100.83	82.324	11.7824	78.1962	77.6106	6.53913	48.9639	85.3711	-1.25029	25.3113	125.094	55.5491	40.746	118.55	55.7549	13.7399	118.37	37.9493	-10.5149	150.022	48.0022	42.3929	152.42	41.2616	6.5711	144.733	21.9154	-14.7438	164.712	30.8434	46.0017	166.158	23.2307	12.807	154.307	3.00534	-7.39178	176.963	8.95931	56.7353	180.445	-1.70001	27.59	169.913	-17.7915	6.77202	159.265	30.1312	97.0735	159.376	24.2072	125.544	134.4	42.6616	107.576	
5	0.0416667	77.1249	12.2174	108.179	67.7962	-7.2075	89.6902	59.7616	-16.6111	67.0166	62.8586	-24.2309	42.174	87.2613	37.1717	44.008	83.1845	29.9933	14.6983	73.539	11.6445	-6.56677	118.514	35.1961	39.6397	117.801	26.3868	7.66759	108.826	2.80676	-11.2522	133.921	25.2574	39.8134	136.948	13.8949	12.9034	123.554	-7.91877	-2.42113	155.032	6.92311	50.4554	154.969	-3.15909	28.3518	146.95	-27.5932	6.33809	141.238	27.2422	91.2007	139.964	27.0282	119.73	111.628	37.5466	103.471	
6	0.05	67.1606	3.65274	118.258	51.5584	-18.3982	104.3	40.5276	-31.9581	79.8863	41.573	-42.6167	58.179	63.2779	20.9178	49.7396	49.5628	10.0154	24.6365	49.6134	-10.9079	5.12558	89.3085	22.2108	40.4495	85.1328	8.13436	11.9051	78.7647	-20.6561	-3.37687	112.67	14.0445	39.9971	109.564	-0.418647	14.5366	98.9485	-25.9684	2.92471	130.263	0.580071	52.269	132.009	-16.8569	27.3596	120.004	-41.2329	12.4846	120.365	24.986	92.6635	124.161	26.6313	120.246	92.5224	31.5884	106.047	
7	0.0583333	60.1469	9.48638	128.061	41.5637	-12.4854	112.983	27.9935	-26.414	92.3493	24.3148	-39.0383	69.3231	50.4035	19.5772	54.1019	37.8242	3.67243	29.7004	28.548	-18.6281	14.4829	78.2011	13.7319	40.6176	67.9778	-3.09083	16.1201	58.3383	-36.1626	5.54959	98.831	3.62408	40.662	91.4282	-13.5204	17.6367	74.3729	-35.5901	11.0288	116.153	-8.31077	54.685	111.382	-24.5899	32.5295	97.2345	-51.7385	20.395	111.547	21.3343	87.2805	120.777	25.6712	119.774	86.1621	33.8662	109.445	
8	0.0666667	62.4592	25.8577	122.238	36.1428	11.594	116.274	20.1495	0.626774	98.6381	9.69899	-13.2767	78.8612	54.736	26.788	50.8654	36.4077	16.1449	30.8076	23.6236	-4.29281	20.4356	77.8765	12.1477	41.6439	59.4698	-6.52417	18.7089	41.693	-27.1508	15.0561	91.4412	-0.892524	46.5414	78.0858	-17.3746	24.7429	52.9951	-40.0325	19.9879	105.391	-19.9219	56.4734	90.4056	-35.8559	38.6249	72.4957	-57.3718	34.1278	116.321	12.5131	87.0804	125.174	17.622	114.584	96.4025	35.8085	106.292	
9	0.075	76.0281	46.5106	121.683	44.2552	40.2813	112.092	24.4009	35.8201	95.7501	10.2062	22.5822	75.4293	70.409	34.4934	45.5687	49.5418	32.9858	28.8191	24.1135	15.0933	19.9736	80.701	14.9706	37.8583	57.7614	0.524265	19.5906	31.5564	-10.8933	17.325	89.704	-6.11283	47.6441	69.6669	-17.0107	28.425	39.2172	-26.6125	25.5129	94.6043	-29.3771	61.5667	74.5294	-40.1755	46.2735	47.9059	-47.6708	40.2197	114.804	7.07347	90.8525	127.222	7.65964	114.007	112.648	34.4443	102.219	
